# xmcd CD database file
#
# Track frame offsets:
#	150
#	20303
#	44158
#	70762
#	94649
#	123063
#	146626
#	168409
#	195419
#	215229
#	241260
#	259407
#
# Disc length: 4041 seconds
#
# Revision: 0
# Processed by: cddbd v1.5.2PL0 Copyright (c) Steve Scherf et al.
# Submitted via: CDex 1.51
#
DISCID=ac0fc70c
DTITLE=Harom - Puberta po '40'
DYEAR=2006
DGENRE=Blues
TTITLE0=Puberta /po ctyricitce/
TTITLE1=Koncim
TTITLE2=Jezata Bara
TTITLE3=Uzaverka
TTITLE4=Smutne rano
TTITLE5=Poradcova zpoved
TTITLE6=Nevim a neverim
TTITLE7=Nad Valmezem svita
TTITLE8=Nerikej ze ne
TTITLE9=Ta nova
TTITLE10=Svitanim odchazim
TTITLE11=Blues o pomateny holce
EXTD=YEAR: 2006
EXTT0=
EXTT1=
EXTT2=
EXTT3=
EXTT4=
EXTT5=
EXTT6=
EXTT7=
EXTT8=
EXTT9=
EXTT10=
EXTT11=
PLAYORDER=
